<mxfile host="app.diagrams.net" agent="Mozilla/5.0 (Windows NT 10.0; Win64; x64; rv:135.0) Gecko/20100101 Firefox/135.0" version="26.0.11">
  <diagram name="Page-1" id="2iZMz1MSZMlMYcdQClPu">
    <mxGraphModel dx="2269" dy="2337" grid="1" gridSize="10" guides="1" tooltips="1" connect="1" arrows="1" fold="1" page="1" pageScale="1" pageWidth="850" pageHeight="1100" math="0" shadow="0">
      <root>
        <mxCell id="0" />
        <mxCell id="1" parent="0" />
        <mxCell id="H80oZMwdlH7r0mB5AyR4-1" value="&lt;font style=&quot;font-size: 20px; line-height: 200%;&quot;&gt;Effectiveness&lt;/font&gt;" style="text;whiteSpace=wrap;html=1;rotation=300;" parent="1" vertex="1">
          <mxGeometry x="1860" y="25" width="150" height="60" as="geometry" />
        </mxCell>
        <mxCell id="H80oZMwdlH7r0mB5AyR4-2" value="&lt;font style=&quot;font-size: 20px; line-height: 200%;&quot;&gt;Efficiency&lt;/font&gt;" style="text;whiteSpace=wrap;html=1;rotation=300;" parent="1" vertex="1">
          <mxGeometry x="1955" y="10" width="120" height="60" as="geometry" />
        </mxCell>
        <mxCell id="H80oZMwdlH7r0mB5AyR4-3" value="&lt;font style=&quot;font-size: 20px; line-height: 200%;&quot;&gt;Manageability&lt;/font&gt;" style="text;whiteSpace=wrap;html=1;rotation=300;" parent="1" vertex="1">
          <mxGeometry x="2000" y="25" width="160" height="60" as="geometry" />
        </mxCell>
        <mxCell id="H80oZMwdlH7r0mB5AyR4-4" value="&lt;font style=&quot;font-size: 20px; line-height: 200%;&quot;&gt;Trust&lt;/font&gt;" style="text;whiteSpace=wrap;html=1;rotation=300;" parent="1" vertex="1">
          <mxGeometry x="2125" width="80" height="60" as="geometry" />
        </mxCell>
        <mxCell id="H80oZMwdlH7r0mB5AyR4-5" value="&lt;font style=&quot;font-size: 20px; line-height: 200%;&quot;&gt;Usability and consistency&lt;/font&gt;" style="text;whiteSpace=wrap;html=1;rotation=300;" parent="1" vertex="1">
          <mxGeometry x="2050" y="70" width="260" height="60" as="geometry" />
        </mxCell>
        <mxCell id="H80oZMwdlH7r0mB5AyR4-6" value="&lt;font style=&quot;font-size: 20px; line-height: 200%;&quot;&gt;Scalable&lt;/font&gt;" style="text;whiteSpace=wrap;html=1;rotation=300;" parent="1" vertex="1">
          <mxGeometry x="2230" y="10" width="110" height="60" as="geometry" />
        </mxCell>
        <mxCell id="H80oZMwdlH7r0mB5AyR4-7" value="&lt;font style=&quot;font-size: 20px; line-height: 200%;&quot;&gt;Equity and Inclusion&lt;/font&gt;" style="text;whiteSpace=wrap;html=1;rotation=300;" parent="1" vertex="1">
          <mxGeometry x="2220" y="50" width="210" height="60" as="geometry" />
        </mxCell>
        <mxCell id="H80oZMwdlH7r0mB5AyR4-8" value="&lt;font style=&quot;font-size: 20px; line-height: 200%;&quot;&gt;Delegation&lt;/font&gt;" style="text;whiteSpace=wrap;html=1;rotation=300;" parent="1" vertex="1">
          <mxGeometry x="2360" y="15" width="130" height="60" as="geometry" />
        </mxCell>
        <mxCell id="H80oZMwdlH7r0mB5AyR4-9" value="&lt;font style=&quot;font-size: 20px; line-height: 200%;&quot;&gt;Decentralization and Autonomy&lt;/font&gt;" style="text;whiteSpace=wrap;html=1;rotation=300;" parent="1" vertex="1">
          <mxGeometry x="2290" y="90" width="310" height="60" as="geometry" />
        </mxCell>
        <mxCell id="H80oZMwdlH7r0mB5AyR4-10" value="&lt;font style=&quot;font-size: 20px; line-height: 200%;&quot;&gt;Verifiability and Authenticity&lt;/font&gt;" style="text;whiteSpace=wrap;html=1;rotation=300;" parent="1" vertex="1">
          <mxGeometry x="2390" y="75" width="280" height="60" as="geometry" />
        </mxCell>
        <mxCell id="H80oZMwdlH7r0mB5AyR4-11" value="&lt;font style=&quot;font-size: 20px; line-height: 200%;&quot;&gt;Non-repudiatable&lt;/font&gt;" style="text;whiteSpace=wrap;html=1;rotation=300;" parent="1" vertex="1">
          <mxGeometry x="1165" y="40" width="190" height="60" as="geometry" />
        </mxCell>
        <mxCell id="H80oZMwdlH7r0mB5AyR4-12" value="&lt;font style=&quot;font-size: 20px; line-height: 200%;&quot;&gt;Reliable&lt;/font&gt;" style="text;whiteSpace=wrap;html=1;rotation=300;" parent="1" vertex="1">
          <mxGeometry x="1290" width="110" height="60" as="geometry" />
        </mxCell>
        <mxCell id="H80oZMwdlH7r0mB5AyR4-14" value="&lt;font style=&quot;font-size: 20px; line-height: 200%;&quot;&gt;Single Source&lt;/font&gt;" style="text;whiteSpace=wrap;html=1;rotation=300;" parent="1" vertex="1">
          <mxGeometry x="1380" y="25" width="160" height="60" as="geometry" />
        </mxCell>
        <mxCell id="H80oZMwdlH7r0mB5AyR4-15" value="&lt;font style=&quot;font-size: 20px; line-height: 200%;&quot;&gt;Standard&lt;/font&gt;" style="text;whiteSpace=wrap;html=1;rotation=300;" parent="1" vertex="1">
          <mxGeometry x="1480" y="10" width="110" height="60" as="geometry" />
        </mxCell>
        <mxCell id="H80oZMwdlH7r0mB5AyR4-16" value="&lt;font style=&quot;font-size: 20px; line-height: 200%;&quot;&gt;Cost&lt;/font&gt;" style="text;whiteSpace=wrap;html=1;rotation=300;" parent="1" vertex="1">
          <mxGeometry x="1570" width="70" height="60" as="geometry" />
        </mxCell>
        <mxCell id="H80oZMwdlH7r0mB5AyR4-17" value="&lt;font style=&quot;font-size: 20px; line-height: 200%;&quot;&gt;Validity&lt;/font&gt;" style="text;whiteSpace=wrap;html=1;rotation=300;" parent="1" vertex="1">
          <mxGeometry x="1625" width="100" height="60" as="geometry" />
        </mxCell>
        <mxCell id="H80oZMwdlH7r0mB5AyR4-18" value="&lt;font style=&quot;font-size: 20px; line-height: 200%;&quot;&gt;Freedom Information&lt;/font&gt;" style="text;whiteSpace=wrap;html=1;rotation=300;" parent="1" vertex="1">
          <mxGeometry x="1610" y="50" width="220" height="60" as="geometry" />
        </mxCell>
        <mxCell id="H80oZMwdlH7r0mB5AyR4-19" value="&lt;font style=&quot;font-size: 20px; line-height: 200%;&quot;&gt;Auditability&lt;/font&gt;" style="text;whiteSpace=wrap;html=1;rotation=300;" parent="1" vertex="1">
          <mxGeometry x="1740" y="15" width="130" height="60" as="geometry" />
        </mxCell>
        <mxCell id="H80oZMwdlH7r0mB5AyR4-20" value="&lt;font style=&quot;font-size: 20px; line-height: 200%;&quot;&gt;Integrity&lt;/font&gt;" style="text;whiteSpace=wrap;html=1;rotation=300;" parent="1" vertex="1">
          <mxGeometry x="1835" y="5" width="100" height="60" as="geometry" />
        </mxCell>
        <mxCell id="H80oZMwdlH7r0mB5AyR4-21" value="&lt;font style=&quot;font-size: 20px; line-height: 200%;&quot;&gt;Transparency&lt;/font&gt;" style="text;whiteSpace=wrap;html=1;rotation=300;" parent="1" vertex="1">
          <mxGeometry x="450" y="20" width="160" height="60" as="geometry" />
        </mxCell>
        <mxCell id="H80oZMwdlH7r0mB5AyR4-22" value="&lt;font style=&quot;font-size: 20px; line-height: 200%;&quot;&gt;Persistence&lt;/font&gt;" style="text;whiteSpace=wrap;html=1;rotation=300;" parent="1" vertex="1">
          <mxGeometry x="530" y="15" width="140" height="60" as="geometry" />
        </mxCell>
        <mxCell id="H80oZMwdlH7r0mB5AyR4-23" value="&lt;font style=&quot;font-size: 20px; line-height: 200%;&quot;&gt;Portability&lt;/font&gt;" style="text;whiteSpace=wrap;html=1;rotation=300;" parent="1" vertex="1">
          <mxGeometry x="610" y="10" width="120" height="60" as="geometry" />
        </mxCell>
        <mxCell id="H80oZMwdlH7r0mB5AyR4-24" value="&lt;font style=&quot;font-size: 20px; line-height: 200%;&quot;&gt;Interoperability&lt;/font&gt;" style="text;whiteSpace=wrap;html=1;rotation=300;" parent="1" vertex="1">
          <mxGeometry x="650" y="30" width="160" height="60" as="geometry" />
        </mxCell>
        <mxCell id="H80oZMwdlH7r0mB5AyR4-25" value="&lt;font style=&quot;font-size: 20px; line-height: 200%;&quot;&gt;Consent&lt;/font&gt;" style="text;whiteSpace=wrap;html=1;rotation=300;" parent="1" vertex="1">
          <mxGeometry x="760" y="5" width="110" height="60" as="geometry" />
        </mxCell>
        <mxCell id="H80oZMwdlH7r0mB5AyR4-26" value="&lt;font style=&quot;font-size: 20px; line-height: 200%;&quot;&gt;Security and protection&lt;/font&gt;" style="text;whiteSpace=wrap;html=1;rotation=300;" parent="1" vertex="1">
          <mxGeometry x="730" y="60" width="240" height="60" as="geometry" />
        </mxCell>
        <mxCell id="H80oZMwdlH7r0mB5AyR4-27" value="&lt;font style=&quot;font-size: 20px; line-height: 200%;&quot;&gt;Privacy and minimal disclosure&lt;/font&gt;" style="text;whiteSpace=wrap;html=1;rotation=300;" parent="1" vertex="1">
          <mxGeometry x="750" y="90" width="310" height="60" as="geometry" />
        </mxCell>
        <mxCell id="H80oZMwdlH7r0mB5AyR4-28" value="&lt;font style=&quot;font-size: 20px; line-height: 200%;&quot;&gt;Self-generatable and independent&lt;/font&gt;" style="text;whiteSpace=wrap;html=1;rotation=300;" parent="1" vertex="1">
          <mxGeometry x="800" y="110" width="330" height="60" as="geometry" />
        </mxCell>
        <mxCell id="H80oZMwdlH7r0mB5AyR4-29" value="&lt;font style=&quot;font-size: 20px; line-height: 200%;&quot;&gt;Opt-in&lt;/font&gt;" style="text;whiteSpace=wrap;html=1;rotation=300;" parent="1" vertex="1">
          <mxGeometry x="1040" width="90" height="60" as="geometry" />
        </mxCell>
        <mxCell id="H80oZMwdlH7r0mB5AyR4-30" value="&lt;font style=&quot;font-size: 20px; line-height: 200%;&quot;&gt;Opt-out&lt;/font&gt;" style="text;whiteSpace=wrap;html=1;rotation=300;" parent="1" vertex="1">
          <mxGeometry x="1095" y="5" width="100" height="60" as="geometry" />
        </mxCell>
        <mxCell id="H80oZMwdlH7r0mB5AyR4-31" value="&lt;font style=&quot;font-size: 20px; line-height: 200%;&quot;&gt;Simple&lt;/font&gt;" style="text;whiteSpace=wrap;html=1;rotation=300;" parent="1" vertex="1">
          <mxGeometry x="1165" y="5" width="90" height="60" as="geometry" />
        </mxCell>
        <mxCell id="H80oZMwdlH7r0mB5AyR4-32" value="&lt;font style=&quot;font-size: 20px; line-height: 200%;&quot;&gt;Existence and representation&lt;/font&gt;" style="text;whiteSpace=wrap;html=1;rotation=300;" parent="1" vertex="1">
          <mxGeometry x="130" y="85" width="290" height="60" as="geometry" />
        </mxCell>
        <mxCell id="H80oZMwdlH7r0mB5AyR4-33" value="&lt;font style=&quot;font-size: 20px; line-height: 200%;&quot;&gt;Ownership and control&lt;/font&gt;" style="text;whiteSpace=wrap;html=1;rotation=300;" parent="1" vertex="1">
          <mxGeometry x="250" y="60" width="230" height="60" as="geometry" />
        </mxCell>
        <mxCell id="H80oZMwdlH7r0mB5AyR4-34" value="&lt;font style=&quot;font-size: 20px; line-height: 200%;&quot;&gt;Access and availability&lt;/font&gt;" style="text;whiteSpace=wrap;html=1;rotation=300;" parent="1" vertex="1">
          <mxGeometry x="320" y="60" width="230" height="60" as="geometry" />
        </mxCell>
        <mxCell id="H80oZMwdlH7r0mB5AyR4-36" value="" style="rounded=0;whiteSpace=wrap;html=1;fillColor=#dae8fc;strokeColor=#6c8ebf;strokeWidth=3;" parent="1" vertex="1">
          <mxGeometry x="310" y="-480" width="30" height="480" as="geometry" />
        </mxCell>
        <mxCell id="H80oZMwdlH7r0mB5AyR4-37" value="" style="endArrow=none;html=1;rounded=0;strokeWidth=1;" parent="1" edge="1">
          <mxGeometry width="50" height="50" relative="1" as="geometry">
            <mxPoint x="240" y="-720" as="sourcePoint" />
            <mxPoint x="240" as="targetPoint" />
          </mxGeometry>
        </mxCell>
        <mxCell id="H80oZMwdlH7r0mB5AyR4-38" value="" style="endArrow=none;html=1;rounded=0;" parent="1" edge="1">
          <mxGeometry width="50" height="50" relative="1" as="geometry">
            <mxPoint x="220" y="-360.23" as="sourcePoint" />
            <mxPoint x="240" y="-360.23" as="targetPoint" />
          </mxGeometry>
        </mxCell>
        <mxCell id="H80oZMwdlH7r0mB5AyR4-40" value="" style="endArrow=none;html=1;rounded=0;" parent="1" edge="1">
          <mxGeometry width="50" height="50" relative="1" as="geometry">
            <mxPoint x="220" y="-720" as="sourcePoint" />
            <mxPoint x="240" y="-720" as="targetPoint" />
          </mxGeometry>
        </mxCell>
        <mxCell id="H80oZMwdlH7r0mB5AyR4-41" value="" style="rounded=0;whiteSpace=wrap;html=1;fillColor=#dae8fc;strokeColor=#6c8ebf;strokeWidth=3;" parent="1" vertex="1">
          <mxGeometry x="380" y="-640" width="30" height="640" as="geometry" />
        </mxCell>
        <mxCell id="H80oZMwdlH7r0mB5AyR4-42" value="" style="rounded=0;whiteSpace=wrap;html=1;fillColor=#dae8fc;strokeColor=#6c8ebf;strokeWidth=3;" parent="1" vertex="1">
          <mxGeometry x="450" y="-600" width="30" height="600" as="geometry" />
        </mxCell>
        <mxCell id="H80oZMwdlH7r0mB5AyR4-43" value="" style="rounded=0;whiteSpace=wrap;html=1;fillColor=#dae8fc;strokeColor=#6c8ebf;strokeWidth=3;" parent="1" vertex="1">
          <mxGeometry x="520" y="-520" width="30" height="520" as="geometry" />
        </mxCell>
        <mxCell id="H80oZMwdlH7r0mB5AyR4-44" value="" style="rounded=0;whiteSpace=wrap;html=1;fillColor=#dae8fc;strokeColor=#6c8ebf;strokeWidth=3;" parent="1" vertex="1">
          <mxGeometry x="590" y="-560" width="30" height="560" as="geometry" />
        </mxCell>
        <mxCell id="H80oZMwdlH7r0mB5AyR4-45" value="" style="rounded=0;whiteSpace=wrap;html=1;fillColor=#dae8fc;strokeColor=#6c8ebf;strokeWidth=3;" parent="1" vertex="1">
          <mxGeometry x="655" y="-560" width="30" height="560" as="geometry" />
        </mxCell>
        <mxCell id="H80oZMwdlH7r0mB5AyR4-46" value="" style="rounded=0;whiteSpace=wrap;html=1;fillColor=#dae8fc;strokeColor=#6c8ebf;strokeWidth=3;" parent="1" vertex="1">
          <mxGeometry x="720" y="-560" width="30" height="560" as="geometry" />
        </mxCell>
        <mxCell id="H80oZMwdlH7r0mB5AyR4-48" value="" style="rounded=0;whiteSpace=wrap;html=1;fillColor=#dae8fc;strokeColor=#6c8ebf;strokeWidth=3;" parent="1" vertex="1">
          <mxGeometry x="790" y="-560" width="30" height="560" as="geometry" />
        </mxCell>
        <mxCell id="H80oZMwdlH7r0mB5AyR4-49" value="" style="rounded=0;whiteSpace=wrap;html=1;fillColor=#dae8fc;strokeColor=#6c8ebf;strokeWidth=3;" parent="1" vertex="1">
          <mxGeometry x="860" y="-640" width="30" height="640" as="geometry" />
        </mxCell>
        <mxCell id="H80oZMwdlH7r0mB5AyR4-50" value="&lt;font style=&quot;font-size: 20px;&quot;&gt;0&lt;/font&gt;" style="text;whiteSpace=wrap;html=1;rotation=0;" parent="1" vertex="1">
          <mxGeometry x="190" y="-30" width="40" height="40" as="geometry" />
        </mxCell>
        <mxCell id="H80oZMwdlH7r0mB5AyR4-51" value="" style="endArrow=none;html=1;rounded=0;strokeWidth=3;" parent="1" edge="1">
          <mxGeometry width="50" height="50" relative="1" as="geometry">
            <mxPoint x="220" as="sourcePoint" />
            <mxPoint x="240" as="targetPoint" />
          </mxGeometry>
        </mxCell>
        <mxCell id="H80oZMwdlH7r0mB5AyR4-52" value="&lt;font style=&quot;font-size: 20px;&quot;&gt;9&lt;/font&gt;" style="text;whiteSpace=wrap;html=1;rotation=0;" parent="1" vertex="1">
          <mxGeometry x="200" y="-380" width="30" height="40" as="geometry" />
        </mxCell>
        <mxCell id="H80oZMwdlH7r0mB5AyR4-53" value="&lt;font style=&quot;font-size: 20px;&quot;&gt;18&lt;/font&gt;" style="text;whiteSpace=wrap;html=1;rotation=0;" parent="1" vertex="1">
          <mxGeometry x="190" y="-730" width="45" height="40" as="geometry" />
        </mxCell>
        <mxCell id="H80oZMwdlH7r0mB5AyR4-55" value="&lt;b&gt;&lt;font style=&quot;font-size: 20px; color: rgb(204, 0, 0);&quot;&gt;25%&lt;/font&gt;&lt;/b&gt;" style="text;whiteSpace=wrap;html=1;rotation=0;" parent="1" vertex="1">
          <mxGeometry x="1190" y="-220" width="60" height="40" as="geometry" />
        </mxCell>
        <mxCell id="H80oZMwdlH7r0mB5AyR4-58" value="" style="rounded=0;whiteSpace=wrap;html=1;fillColor=#dae8fc;strokeColor=#6c8ebf;strokeWidth=3;" parent="1" vertex="1">
          <mxGeometry x="930" y="-680" width="30" height="680" as="geometry" />
        </mxCell>
        <mxCell id="H80oZMwdlH7r0mB5AyR4-59" value="" style="rounded=0;whiteSpace=wrap;html=1;fillColor=#ffe6cc;strokeColor=#d79b00;strokeWidth=3;" parent="1" vertex="1">
          <mxGeometry x="1000" y="-80" width="30" height="80" as="geometry" />
        </mxCell>
        <mxCell id="H80oZMwdlH7r0mB5AyR4-60" value="" style="rounded=0;whiteSpace=wrap;html=1;fillColor=#ffe6cc;strokeColor=#d79b00;strokeWidth=3;" parent="1" vertex="1">
          <mxGeometry x="1065" y="-40" width="30" height="40" as="geometry" />
        </mxCell>
        <mxCell id="H80oZMwdlH7r0mB5AyR4-61" value="" style="rounded=0;whiteSpace=wrap;html=1;fillColor=#ffe6cc;strokeColor=#d79b00;strokeWidth=3;" parent="1" vertex="1">
          <mxGeometry x="1130" y="-40" width="30" height="40" as="geometry" />
        </mxCell>
        <mxCell id="H80oZMwdlH7r0mB5AyR4-62" value="" style="rounded=0;whiteSpace=wrap;html=1;fillColor=#ffe6cc;strokeColor=#d79b00;strokeWidth=3;" parent="1" vertex="1">
          <mxGeometry x="1195" y="-80" width="30" height="80" as="geometry" />
        </mxCell>
        <mxCell id="H80oZMwdlH7r0mB5AyR4-64" value="" style="rounded=0;whiteSpace=wrap;html=1;fillColor=#ffe6cc;strokeColor=#d79b00;strokeWidth=3;" parent="1" vertex="1">
          <mxGeometry x="1260" y="-40" width="30" height="40" as="geometry" />
        </mxCell>
        <mxCell id="H80oZMwdlH7r0mB5AyR4-66" value="" style="rounded=0;whiteSpace=wrap;html=1;fillColor=#ffe6cc;strokeColor=#d79b00;strokeWidth=3;" parent="1" vertex="1">
          <mxGeometry x="1325" y="-40" width="30" height="40" as="geometry" />
        </mxCell>
        <mxCell id="H80oZMwdlH7r0mB5AyR4-67" value="&lt;font style=&quot;font-size: 20px;&quot;&gt;Equivalent&lt;/font&gt;" style="text;whiteSpace=wrap;html=1;rotation=300;" parent="1" vertex="1">
          <mxGeometry x="1350" y="20" width="120" height="60" as="geometry" />
        </mxCell>
        <mxCell id="H80oZMwdlH7r0mB5AyR4-68" value="" style="rounded=0;whiteSpace=wrap;html=1;fillColor=#ffe6cc;strokeColor=#d79b00;strokeWidth=3;" parent="1" vertex="1">
          <mxGeometry x="1390" y="-80" width="30" height="80" as="geometry" />
        </mxCell>
        <mxCell id="H80oZMwdlH7r0mB5AyR4-69" value="" style="rounded=0;whiteSpace=wrap;html=1;fillColor=#ffe6cc;strokeColor=#d79b00;strokeWidth=3;" parent="1" vertex="1">
          <mxGeometry x="1450" y="-80" width="30" height="80" as="geometry" />
        </mxCell>
        <mxCell id="H80oZMwdlH7r0mB5AyR4-70" value="" style="rounded=0;whiteSpace=wrap;html=1;fillColor=#ffe6cc;strokeColor=#d79b00;strokeWidth=3;" parent="1" vertex="1">
          <mxGeometry x="1520" y="-200" width="30" height="200" as="geometry" />
        </mxCell>
        <mxCell id="H80oZMwdlH7r0mB5AyR4-71" value="" style="rounded=0;whiteSpace=wrap;html=1;fillColor=#ffe6cc;strokeColor=#d79b00;strokeWidth=3;" parent="1" vertex="1">
          <mxGeometry x="1590" y="-240" width="30" height="240" as="geometry" />
        </mxCell>
        <mxCell id="H80oZMwdlH7r0mB5AyR4-72" value="" style="rounded=0;whiteSpace=wrap;html=1;fillColor=#ffe6cc;strokeColor=#d79b00;strokeWidth=3;" parent="1" vertex="1">
          <mxGeometry x="1660" y="-40" width="30" height="40" as="geometry" />
        </mxCell>
        <mxCell id="H80oZMwdlH7r0mB5AyR4-74" value="" style="rounded=0;whiteSpace=wrap;html=1;fillColor=#ffe6cc;strokeColor=#d79b00;strokeWidth=3;" parent="1" vertex="1">
          <mxGeometry x="1730" y="-40" width="30" height="40" as="geometry" />
        </mxCell>
        <mxCell id="H80oZMwdlH7r0mB5AyR4-75" value="" style="rounded=0;whiteSpace=wrap;html=1;fillColor=#ffe6cc;strokeColor=#d79b00;strokeWidth=3;" parent="1" vertex="1">
          <mxGeometry x="1800" y="-40" width="30" height="40" as="geometry" />
        </mxCell>
        <mxCell id="H80oZMwdlH7r0mB5AyR4-76" value="" style="rounded=0;whiteSpace=wrap;html=1;fillColor=#ffe6cc;strokeColor=#d79b00;strokeWidth=3;" parent="1" vertex="1">
          <mxGeometry x="1870" y="-40" width="30" height="40" as="geometry" />
        </mxCell>
        <mxCell id="H80oZMwdlH7r0mB5AyR4-78" value="" style="rounded=0;whiteSpace=wrap;html=1;fillColor=#ffe6cc;strokeColor=#d79b00;strokeWidth=3;" parent="1" vertex="1">
          <mxGeometry x="1935" y="-40" width="30" height="40" as="geometry" />
        </mxCell>
        <mxCell id="H80oZMwdlH7r0mB5AyR4-79" value="" style="rounded=0;whiteSpace=wrap;html=1;fillColor=#ffe6cc;strokeColor=#d79b00;strokeWidth=3;" parent="1" vertex="1">
          <mxGeometry x="2005" y="-40" width="30" height="40" as="geometry" />
        </mxCell>
        <mxCell id="H80oZMwdlH7r0mB5AyR4-80" value="" style="rounded=0;whiteSpace=wrap;html=1;fillColor=#ffe6cc;strokeColor=#d79b00;strokeWidth=3;" parent="1" vertex="1">
          <mxGeometry x="2075" y="-40" width="30" height="40" as="geometry" />
        </mxCell>
        <mxCell id="H80oZMwdlH7r0mB5AyR4-81" value="" style="rounded=0;whiteSpace=wrap;html=1;fillColor=#ffe6cc;strokeColor=#d79b00;strokeWidth=3;" parent="1" vertex="1">
          <mxGeometry x="2140" y="-80" width="30" height="80" as="geometry" />
        </mxCell>
        <mxCell id="H80oZMwdlH7r0mB5AyR4-82" value="" style="rounded=0;whiteSpace=wrap;html=1;fillColor=#ffe6cc;strokeColor=#d79b00;strokeWidth=3;" parent="1" vertex="1">
          <mxGeometry x="2205" y="-240" width="30" height="240" as="geometry" />
        </mxCell>
        <mxCell id="H80oZMwdlH7r0mB5AyR4-83" value="" style="rounded=0;whiteSpace=wrap;html=1;fillColor=#ffe6cc;strokeColor=#d79b00;strokeWidth=3;" parent="1" vertex="1">
          <mxGeometry x="2270" y="-120" width="30" height="120" as="geometry" />
        </mxCell>
        <mxCell id="H80oZMwdlH7r0mB5AyR4-84" value="" style="rounded=0;whiteSpace=wrap;html=1;fillColor=#ffe6cc;strokeColor=#d79b00;strokeWidth=3;" parent="1" vertex="1">
          <mxGeometry x="2340" y="-40" width="30" height="40" as="geometry" />
        </mxCell>
        <mxCell id="H80oZMwdlH7r0mB5AyR4-85" value="" style="rounded=0;whiteSpace=wrap;html=1;fillColor=#ffe6cc;strokeColor=#d79b00;strokeWidth=3;" parent="1" vertex="1">
          <mxGeometry x="2410" y="-40" width="30" height="40" as="geometry" />
        </mxCell>
        <mxCell id="H80oZMwdlH7r0mB5AyR4-86" value="" style="rounded=0;whiteSpace=wrap;html=1;fillColor=#ffe6cc;strokeColor=#d79b00;strokeWidth=3;" parent="1" vertex="1">
          <mxGeometry x="2480" y="-200" width="30" height="200" as="geometry" />
        </mxCell>
        <mxCell id="H80oZMwdlH7r0mB5AyR4-87" value="" style="rounded=0;whiteSpace=wrap;html=1;fillColor=#ffe6cc;strokeColor=#d79b00;strokeWidth=3;" parent="1" vertex="1">
          <mxGeometry x="2550" y="-200" width="30" height="200" as="geometry" />
        </mxCell>
        <mxCell id="H80oZMwdlH7r0mB5AyR4-35" value="" style="endArrow=none;html=1;rounded=0;strokeWidth=3;" parent="1" edge="1">
          <mxGeometry width="50" height="50" relative="1" as="geometry">
            <mxPoint x="2610" as="sourcePoint" />
            <mxPoint x="240" as="targetPoint" />
          </mxGeometry>
        </mxCell>
        <mxCell id="H80oZMwdlH7r0mB5AyR4-90" value="" style="rounded=0;whiteSpace=wrap;html=1;fillColor=#dae8fc;strokeColor=#6c8ebf;strokeWidth=3;" parent="1" vertex="1">
          <mxGeometry x="2140" y="-660" width="40" height="40" as="geometry" />
        </mxCell>
        <mxCell id="H80oZMwdlH7r0mB5AyR4-91" value="Allen Principles" style="text;whiteSpace=wrap;align=center;fontSize=30;" parent="1" vertex="1">
          <mxGeometry x="2180" y="-660" width="235" height="40" as="geometry" />
        </mxCell>
        <mxCell id="H80oZMwdlH7r0mB5AyR4-92" value="" style="rounded=0;whiteSpace=wrap;html=1;fillColor=#ffe6cc;strokeColor=#d79b00;strokeWidth=3;" parent="1" vertex="1">
          <mxGeometry x="2140" y="-600" width="40" height="40" as="geometry" />
        </mxCell>
        <mxCell id="H80oZMwdlH7r0mB5AyR4-93" value="Extending Principles" style="text;whiteSpace=wrap;align=center;fontSize=30;" parent="1" vertex="1">
          <mxGeometry x="2180" y="-600" width="295" height="40" as="geometry" />
        </mxCell>
        <mxCell id="H80oZMwdlH7r0mB5AyR4-94" value="" style="endArrow=none;html=1;rounded=0;strokeWidth=4;fillColor=#e51400;strokeColor=#B20000;" parent="1" edge="1">
          <mxGeometry width="50" height="50" relative="1" as="geometry">
            <mxPoint x="2610" y="-180" as="sourcePoint" />
            <mxPoint x="240" y="-180" as="targetPoint" />
          </mxGeometry>
        </mxCell>
        <mxCell id="H80oZMwdlH7r0mB5AyR4-95" value="" style="endArrow=none;html=1;rounded=0;strokeWidth=1;fillColor=#f5f5f5;strokeColor=#666666;dashed=1;dashPattern=12 12;opacity=60;" parent="1" edge="1">
          <mxGeometry width="50" height="50" relative="1" as="geometry">
            <mxPoint x="2610" y="-360" as="sourcePoint" />
            <mxPoint x="240" y="-360" as="targetPoint" />
          </mxGeometry>
        </mxCell>
        <mxCell id="H80oZMwdlH7r0mB5AyR4-96" value="" style="endArrow=none;html=1;rounded=0;strokeWidth=1;fillColor=#f5f5f5;strokeColor=#666666;dashed=1;dashPattern=12 12;opacity=60;" parent="1" edge="1">
          <mxGeometry width="50" height="50" relative="1" as="geometry">
            <mxPoint x="2610" y="-540" as="sourcePoint" />
            <mxPoint x="240" y="-540" as="targetPoint" />
          </mxGeometry>
        </mxCell>
        <mxCell id="8ZRFpl5qV4VwEXCt20aw-1" value="&lt;font style=&quot;font-size: 30px;&quot;&gt;Occurrence&lt;/font&gt;" style="text;whiteSpace=wrap;html=1;rotation=-89;opacity=90;" parent="1" vertex="1">
          <mxGeometry x="45" y="-440" width="190" height="60" as="geometry" />
        </mxCell>
        <mxCell id="eb7qV8oV0duKH3qANgF9-1" value="&lt;font style=&quot;font-size: 30px;&quot;&gt;Principles&lt;/font&gt;" style="text;whiteSpace=wrap;html=1;rotation=0;opacity=90;" parent="1" vertex="1">
          <mxGeometry x="1350" y="280" width="190" height="60" as="geometry" />
        </mxCell>
        <mxCell id="eb7qV8oV0duKH3qANgF9-3" value="&lt;b&gt;&lt;font style=&quot;font-size: 20px; color: rgb(204, 0, 0);&quot;&gt;25%&lt;/font&gt;&lt;/b&gt;" style="text;whiteSpace=wrap;html=1;rotation=0;" parent="1" vertex="1">
          <mxGeometry x="2350" y="-220" width="60" height="40" as="geometry" />
        </mxCell>
        <mxCell id="eb7qV8oV0duKH3qANgF9-5" value="&lt;b&gt;&lt;font style=&quot;font-size: 20px; color: rgb(204, 0, 0);&quot;&gt;25%&lt;/font&gt;&lt;/b&gt;" style="text;whiteSpace=wrap;html=1;rotation=0;" parent="1" vertex="1">
          <mxGeometry x="250" y="-220" width="60" height="40" as="geometry" />
        </mxCell>
        <mxCell id="U_a3RGGLaEpqTER4CgUE-1" value="&lt;b&gt;&lt;font style=&quot;font-size: 20px; color: rgb(204, 0, 0);&quot;&gt;25%&lt;/font&gt;&lt;/b&gt;" style="text;whiteSpace=wrap;html=1;rotation=0;" parent="1" vertex="1">
          <mxGeometry x="1895" y="-220" width="60" height="40" as="geometry" />
        </mxCell>
      </root>
    </mxGraphModel>
  </diagram>
</mxfile>
